<svg xmlns="http://www.w3.org/2000/svg" viewBox="0 0 64 64" role="img" aria-labelledby="title desc">
  <title id="title">Brasão simplificado de Orlândia</title>
  <desc id="desc">Escudo estilizado nas cores azul, verde e amarelo com coroa superior</desc>
  <defs>
    <linearGradient id="shieldGradient" x1="0%" y1="0%" x2="100%" y2="100%">
      <stop offset="0%" stop-color="#0b3a75" />
      <stop offset="100%" stop-color="#1e88e5" />
    </linearGradient>
    <linearGradient id="fieldGradient" x1="0%" y1="0%" x2="0%" y2="100%">
      <stop offset="0%" stop-color="#43a047" />
      <stop offset="100%" stop-color="#2e7d32" />
    </linearGradient>
  </defs>
  <g fill="none" stroke-linecap="round" stroke-linejoin="round">
    <path d="M8 10h48l-3 10c-2.5 8.2-10.8 24.9-21 32.8-10.2-7.9-18.5-24.6-21-32.8z" fill="url(#shieldGradient)" stroke="#0b2d59" stroke-width="2" />
    <path d="M16 22h32v11c0 7.7-6.8 15.8-16 20-9.2-4.2-16-12.3-16-20z" fill="url(#fieldGradient)" stroke="#0b2d59" stroke-width="1.5" />
    <path d="M24 33h16" stroke="#fdd835" stroke-width="2" />
    <path d="M24 38h16" stroke="#fdd835" stroke-width="2" />
    <circle cx="32" cy="28" r="5" fill="#fdd835" stroke="#0b2d59" stroke-width="1.5" />
    <path d="M14 10l3-6h30l3 6" fill="#fdd835" stroke="#b28704" stroke-width="1.5" />
    <path d="M19 6l2-4h22l2 4" fill="#ffd54f" stroke="#b28704" stroke-width="1" />
    <path d="M21 47c3.5 4.2 7.5 7.4 11 9 3.5-1.6 7.5-4.8 11-9" stroke="#fbc02d" stroke-width="2" />
  </g>
</svg>
